<svg width="1200" height="630" viewBox="0 0 1200 630" fill="none" xmlns="http://www.w3.org/2000/svg">
  <defs>
    <linearGradient id="bg" x1="74" y1="54" x2="1128" y2="576" gradientUnits="userSpaceOnUse">
      <stop stop-color="#0F172A" />
      <stop offset="0.55" stop-color="#0B5FFF" />
      <stop offset="1" stop-color="#14B8A6" />
    </linearGradient>
    <radialGradient id="glow" cx="0" cy="0" r="1" gradientUnits="userSpaceOnUse" gradientTransform="translate(960 164) rotate(137.077) scale(350 278.901)">
      <stop stop-color="#FFFFFF" stop-opacity="0.34" />
      <stop offset="1" stop-color="#FFFFFF" stop-opacity="0" />
    </radialGradient>
  </defs>
  <rect width="1200" height="630" rx="36" fill="url(#bg)" />
  <rect x="42" y="42" width="1116" height="546" rx="30" fill="rgba(255,255,255,0.06)" stroke="rgba(255,255,255,0.18)" />
  <circle cx="960" cy="164" r="220" fill="url(#glow)" />
  <circle cx="1042" cy="448" r="144" fill="rgba(255,255,255,0.08)" />
  <g opacity="0.18">
    <path d="M760 124H1092" stroke="white" stroke-width="2" stroke-dasharray="10 12" />
    <path d="M760 506H1080" stroke="white" stroke-width="2" stroke-dasharray="10 12" />
    <path d="M146 222H458" stroke="white" stroke-width="2" stroke-dasharray="10 12" />
  </g>
  <rect x="96" y="100" width="170" height="170" rx="38" fill="rgba(255,255,255,0.12)" stroke="rgba(255,255,255,0.18)" />
  <path d="M145 150H217V170H190V234H172V170H145V150Z" fill="white" />
  <path d="M222 150H253L213 234H182L222 150Z" fill="#A5F3FC" />
  <text x="96" y="344" fill="white" font-family="Arial, sans-serif" font-size="74" font-weight="700">TechZone</text>
  <text x="96" y="414" fill="rgba(255,255,255,0.9)" font-family="Arial, sans-serif" font-size="34">
    Computers, accessories, and repairs
  </text>
  <text x="96" y="474" fill="rgba(255,255,255,0.74)" font-family="Arial, sans-serif" font-size="28">
    Arabic-first storefront optimized for fast product discovery
  </text>
  <rect x="96" y="516" width="280" height="52" rx="26" fill="rgba(255,255,255,0.14)" stroke="rgba(255,255,255,0.18)" />
  <text x="124" y="550" fill="white" font-family="Arial, sans-serif" font-size="26" font-weight="700">
    tensr.systems
  </text>
</svg>

